<mxfile host="app.diagrams.net" modified="2024-01-05T08:31:14.373Z" agent="Mozilla/5.0 (Windows NT 10.0; Win64; x64) AppleWebKit/537.36 (KHTML, like Gecko) Chrome/120.0.0.0 Safari/537.36" etag="JrGsqJ-SgjufLUlzPJkV" version="22.1.16" type="device">
  <diagram name="Sayfa -1" id="it60V9ZoViQ1-H364HfJ">
    <mxGraphModel dx="2117" dy="653" grid="1" gridSize="10" guides="1" tooltips="1" connect="1" arrows="1" fold="1" page="1" pageScale="1" pageWidth="827" pageHeight="1169" math="0" shadow="0">
      <root>
        <mxCell id="0" />
        <mxCell id="1" parent="0" />
        <mxCell id="mDMuHrbuEP890XVlgnVV-1" value="&lt;p style=&quot;margin:0px;margin-top:4px;text-align:center;&quot;&gt;&lt;b&gt;Person&lt;/b&gt;&lt;/p&gt;&lt;hr size=&quot;1&quot;&gt;&lt;p style=&quot;margin:0 0 0 4px;line-height:1.6;&quot;&gt; __name: String&lt;br&gt; __password: String&lt;br&gt; __ID: Integer&lt;br&gt; __userName: String&lt;br&gt; __surname: String&lt;br&gt; __department: String&lt;/p&gt;&lt;hr size=&quot;1&quot;&gt;&lt;p style=&quot;margin:0 0 0 4px;line-height:1.6;&quot;&gt; __init__(self, ID, name, surname, userName, password, department=None): &lt;br&gt; login(self, userName, password): &lt;br&gt; getUserName(self): &lt;br&gt; setUserName(self, userName): &lt;br&gt; getPassword(self): &lt;br&gt; setPassword(self, password): &lt;br&gt; getDepartment(self): &lt;br&gt; setDepartment(self, department): &lt;br&gt; getName(self): &lt;br&gt; getSurname(self): &lt;br&gt; getID(self): &lt;/p&gt;" style="verticalAlign=top;align=left;overflow=fill;fontSize=14;fontFamily=Helvetica;html=1;rounded=0;shadow=0;comic=0;labelBackgroundColor=none;strokeWidth=1;" vertex="1" parent="1">
          <mxGeometry x="-710" y="322" width="491" height="448" as="geometry" />
        </mxCell>
      </root>
    </mxGraphModel>
  </diagram>
</mxfile>
